<svg width="60" height="60" viewBox="0 0 60 60" fill="none" xmlns="http://www.w3.org/2000/svg">
<g id="Icons">
<g id="Icon">
<path d="M22.5008 9.39575C22.5008 6.96804 24.4689 5 26.8966 5H33.105C35.5328 5 37.5008 6.96806 37.5008 9.39578C37.5008 12.7796 41.164 14.8945 44.0946 13.2026C46.1971 11.9887 48.8856 12.7091 50.0994 14.8116L53.2036 20.1881C54.4175 22.2906 53.6971 24.9791 51.5946 26.1929C48.6641 27.8849 48.6641 32.1148 51.5946 33.8067C53.6971 35.0206 54.4175 37.709 53.2036 39.8115L50.0994 45.1881C48.8856 47.2906 46.1971 48.011 44.0946 46.7971C41.164 45.1051 37.5008 47.2201 37.5008 50.6041C37.5008 53.0319 35.5327 55 33.1049 55H26.8967C24.4689 55 22.5008 53.0319 22.5008 50.6041C22.5008 47.2202 18.8377 45.1052 15.9071 46.7971C13.8046 48.011 11.1162 47.2906 9.90235 45.1881L6.79816 39.8115C5.58428 37.709 6.30465 35.0206 8.40714 33.8067C11.3377 32.1148 11.3377 27.8849 8.40715 26.1929C6.30465 24.9791 5.58429 22.2906 6.79816 20.1881L9.90235 14.8115C11.1162 12.709 13.8047 11.9887 15.9071 13.2026C18.8376 14.8945 22.5008 12.7796 22.5008 9.39575Z" stroke="#004765" stroke-width="3"/>
<path d="M40.0008 30C40.0008 35.5228 35.5237 40 30.0008 40C24.478 40 20.0008 35.5228 20.0008 30C20.0008 24.4772 24.478 20 30.0008 20C35.5237 20 40.0008 24.4772 40.0008 30Z" stroke="#004765" stroke-width="3"/>
</g>
</g>
</svg>
