<svg width="60" height="60" viewBox="0 0 28 22" fill="none" xmlns="http://www.w3.org/2000/svg">
<g id="Group">
<path id="Vector" d="M15.0737 9.82403C14.9457 9.79203 14.7857 9.66403 14.7857 9.47203V9.15203C13.2497 8.76803 12.6097 8.60803 12.0657 8.73603C11.4897 8.86403 10.9457 9.34403 10.7857 9.56803C10.6577 9.76003 10.6897 10.176 10.8497 10.432L11.4257 10.56C11.5537 10.592 11.6497 10.72 11.6177 10.848L11.1697 12.768C11.1377 12.896 11.0097 12.96 10.8817 12.928L7.48969 12.096C7.36169 12.064 7.26569 11.936 7.29769 11.808L7.74569 9.88803C7.77769 9.76003 7.90568 9.69603 8.03368 9.72803L8.25769 9.79203C8.44969 9.69603 8.73768 9.47203 8.80168 9.24803C8.89768 8.86403 8.25769 8.54403 8.28969 8.12803C8.32169 7.68003 8.41769 7.10403 8.51369 6.72003C8.60969 6.33603 8.99369 4.83203 10.2737 3.20003C11.5537 1.56803 13.5377 1.21603 14.2097 1.34403C14.5617 1.40803 15.0417 1.66403 14.5617 1.82403C14.0817 1.98403 12.5457 2.72003 12.2577 3.52003C11.9697 4.32003 11.8737 5.21603 12.3857 6.01603C12.8657 6.81603 13.4417 7.10403 15.1697 7.52003L15.2977 7.29603C15.3937 7.13603 15.5857 7.10403 15.7137 7.13603C15.7137 7.13603 15.9697 7.20003 18.5617 7.80803C22.4017 8.73603 26.7857 9.37603 26.7857 9.37603C26.9137 9.40803 27.0097 9.53603 26.9777 9.66403L26.2417 12.736C26.2097 12.864 26.0817 12.928 25.9537 12.896C25.9537 12.896 21.7617 11.456 17.9217 10.56C15.3297 9.92003 15.0737 9.82403 15.0737 9.82403Z" stroke="#004765" stroke-width="2"/>
<path id="Vector_2" d="M4.89172 11.9865L3.13376 12.3072L5.32484 13.3184L4.05095 16.5247C5.98726 15.5381 6.39491 15.6614 6.54777 15.7108C6.72612 15.7601 6.8535 15.8834 6.92994 16.0314C7.03185 16.278 7.92357 17.9552 8.61146 19.2377L9.3758 16.204L11.8726 16.7713L12.3312 14.9709L13.5287 14.7982L12.8153 14.2556L13.4268 13.491L16 15.4395L13.1465 15.8341L12.6115 17.9305L10.1146 17.3632L8.96815 22L8.35669 20.8408C8.15287 20.4709 6.64968 17.6345 6.1656 16.6726C5.63057 16.8206 4.40764 17.4372 3.38853 18.0291L2.16561 18.7197L4.10191 13.787L0 11.8386L4.76433 11L4.89172 11.9865Z" fill="#004765"/>
</g>
</svg>
