<svg width="60" height="60" viewBox="0 0 32 32" fill="none" xmlns="http://www.w3.org/2000/svg">
<g id="Frame 1835">
<g id="Vector">
<path d="M11.0042 19.5821L9.63821 17.6239C9.5809 17.6303 9.49493 17.6335 9.3803 17.6335H7.87104V19.5821H6.62925V12.8955H9.3803C9.9598 12.8955 10.4629 12.9911 10.8896 13.1821C11.3226 13.3732 11.6537 13.647 11.883 14.0036C12.1122 14.3602 12.2269 14.7837 12.2269 15.274C12.2269 15.7771 12.1027 16.2102 11.8543 16.5732C11.6123 16.9361 11.2621 17.2068 10.8036 17.3851L12.3415 19.5821H11.0042ZM10.9755 15.274C10.9755 14.8474 10.8354 14.5194 10.5552 14.2902C10.275 14.0609 9.86428 13.9463 9.32298 13.9463H7.87104V16.6114H9.32298C9.86428 16.6114 10.275 16.4967 10.5552 16.2675C10.8354 16.0319 10.9755 15.7007 10.9755 15.274Z" fill="#004765"/>
<path d="M18.144 18.0346H14.8007L14.1416 19.5821H12.8616L15.8705 12.8955H17.0932L20.1117 19.5821H18.8126L18.144 18.0346ZM17.7332 17.0603L16.4723 14.1373L15.221 17.0603H17.7332Z" fill="#004765"/>
<path d="M21.1531 12.8955H22.3949V18.5314H25.891V19.5821H21.1531V12.8955Z" fill="#004765"/>
<path fill-rule="evenodd" clip-rule="evenodd" d="M28.1791 7.64181H3.8209C2.23823 7.64181 0.955224 8.92481 0.955224 10.5075V21.9702C0.955224 23.5528 2.23823 24.8358 3.8209 24.8358H28.1791C29.7618 24.8358 31.0448 23.5528 31.0448 21.9702V10.5075C31.0448 8.92481 29.7618 7.64181 28.1791 7.64181ZM3.8209 6.68658C1.71067 6.68658 0 8.39726 0 10.5075V21.9702C0 24.0804 1.71067 25.7911 3.8209 25.7911H28.1791C30.2893 25.7911 32 24.0804 32 21.9702V10.5075C32 8.39726 30.2893 6.68658 28.1791 6.68658H3.8209Z" fill="#004765"/>
</g>
</g>
</svg>
