<svg width="60" height="60" viewBox="0 0 60 60" fill="none" xmlns="http://www.w3.org/2000/svg">
<g id="Icons">
<path id="Icon" d="M28.5 50C28.5 50.8284 29.1716 51.5 30 51.5C30.8284 51.5 31.5 50.8284 31.5 50H28.5ZM31.5 9.99998C31.5 9.17156 30.8284 8.49998 30 8.49998C29.1716 8.49998 28.5 9.17156 28.5 9.99998L31.5 9.99998ZM23.5607 43.9393C22.9749 43.3535 22.0251 43.3535 21.4393 43.9393C20.8536 44.5251 20.8536 45.4749 21.4393 46.0606L23.5607 43.9393ZM27.1716 49.6716L28.2322 48.6109H28.2322L27.1716 49.6716ZM32.8284 49.6716L33.8891 50.7322L33.8891 50.7322L32.8284 49.6716ZM38.5607 46.0606C39.1465 45.4749 39.1465 44.5251 38.5607 43.9393C37.9749 43.3535 37.0251 43.3535 36.4393 43.9393L38.5607 46.0606ZM29.2275 51.3421L29.691 49.9155H29.691L29.2275 51.3421ZM30.7725 51.3421L30.309 49.9155L30.7725 51.3421ZM21.4393 13.9393C20.8536 14.5251 20.8536 15.4749 21.4393 16.0606C22.0251 16.6464 22.9749 16.6464 23.5607 16.0606L21.4393 13.9393ZM27.1716 10.3284L26.1109 9.26775V9.26775L27.1716 10.3284ZM32.8284 10.3284L33.8891 9.26775L33.8891 9.26775L32.8284 10.3284ZM36.4393 16.0606C37.0251 16.6464 37.9749 16.6464 38.5607 16.0606C39.1465 15.4749 39.1465 14.5251 38.5607 13.9393L36.4393 16.0606ZM29.2275 8.65788L29.691 10.0845V10.0845L29.2275 8.65788ZM30.7725 8.65788L30.309 10.0845L30.7725 8.65788ZM31.5 50L31.5 9.99998L28.5 9.99998L28.5 50H31.5ZM21.4393 46.0606L26.1109 50.7322L28.2322 48.6109L23.5607 43.9393L21.4393 46.0606ZM33.8891 50.7322L38.5607 46.0606L36.4393 43.9393L31.7678 48.6109L33.8891 50.7322ZM26.1109 50.7322C26.5884 51.2097 27.0095 51.6325 27.386 51.952C27.7758 52.283 28.2152 52.5904 28.7639 52.7687L29.691 49.9155C29.6689 49.9083 29.5754 49.8755 29.3275 49.665C29.0662 49.4432 28.7448 49.1234 28.2322 48.6109L26.1109 50.7322ZM31.7678 48.6109C31.2553 49.1234 30.9338 49.4432 30.6725 49.665C30.4246 49.8755 30.3311 49.9083 30.309 49.9155L31.2361 52.7687C31.7848 52.5904 32.2242 52.283 32.614 51.952C32.9905 51.6325 33.4116 51.2097 33.8891 50.7322L31.7678 48.6109ZM28.7639 52.7687C29.5673 53.0297 30.4327 53.0297 31.2361 52.7687L30.309 49.9155C30.1082 49.9808 29.8918 49.9808 29.691 49.9155L28.7639 52.7687ZM23.5607 16.0606L28.2322 11.3891L26.1109 9.26775L21.4393 13.9393L23.5607 16.0606ZM31.7678 11.3891L36.4393 16.0606L38.5607 13.9393L33.8891 9.26775L31.7678 11.3891ZM28.2322 11.3891C28.7448 10.8766 29.0662 10.5568 29.3275 10.3349C29.5754 10.1245 29.6689 10.0916 29.691 10.0845L28.7639 7.2313C28.2152 7.40959 27.7758 7.717 27.386 8.04792C27.0095 8.36748 26.5884 8.79023 26.1109 9.26775L28.2322 11.3891ZM33.8891 9.26775C33.4116 8.79024 32.9905 8.36748 32.614 8.04793C32.2242 7.717 31.7848 7.40959 31.2361 7.2313L30.309 10.0845C30.3311 10.0916 30.4246 10.1245 30.6725 10.3349C30.9338 10.5568 31.2553 10.8766 31.7678 11.3891L33.8891 9.26775ZM29.691 10.0845C29.8918 10.0192 30.1082 10.0192 30.309 10.0845L31.2361 7.2313C30.4327 6.97026 29.5673 6.97026 28.7639 7.2313L29.691 10.0845Z" fill="#004765"/>
</g>
</svg>
