<svg width="60" height="60" viewBox="0 0 60 60" fill="none" xmlns="http://www.w3.org/2000/svg">
<g id="Icons">
<path id="Icon" d="M26.777 18.652L24.4353 16.3103C22.079 13.954 22.9176 10 26.25 10C30.7373 10 34.7998 11.8188 37.7405 14.7595C40.6812 17.7002 42.5 21.7627 42.5 26.25C42.5 27.0749 42.4385 27.8855 42.3199 28.6774C42.0288 30.621 42.4315 32.6832 43.8386 34.0551L48.8744 38.965C50.8693 40.9101 50.8896 44.1104 48.9194 46.0806L46.0355 48.9645C44.0829 50.9171 40.9171 50.9171 38.9645 48.9645L33.8174 43.8174C32.461 42.461 30.4544 42.068 28.5552 42.3378C27.8022 42.4447 27.0325 42.5 26.25 42.5C21.7627 42.5 17.7002 40.6812 14.7595 37.7405C11.8188 34.7998 10 30.7373 10 26.25C10 22.9176 13.954 22.079 16.3103 24.4353L18.652 26.777C20.6046 28.7296 23.7704 28.7296 25.723 26.777L26.777 25.723C28.7296 23.7704 28.7296 20.6046 26.777 18.652Z" stroke="#004765" stroke-width="3" stroke-linecap="round"/>
</g>
</svg>
