<svg width="44" height="54" viewBox="0 0 44 54" fill="none" xmlns="http://www.w3.org/2000/svg">
<path id="Icon" d="M32 27H27M32 34.5H27M32 42H27M17 27H12M17 34.5H12M17 42H12M14 52H30C34.2004 52 36.3006 52 37.9049 51.1825C39.3161 50.4635 40.4635 49.3161 41.1825 47.9049C42 46.3006 42 44.2004 42 40V14C42 9.79961 42 7.69941 41.1825 6.09507C40.4635 4.68386 39.3161 3.5365 37.9049 2.81745C36.3006 2 34.2004 2 30 2H14C9.79961 2 7.69941 2 6.09507 2.81745C4.68386 3.5365 3.5365 4.68386 2.81745 6.09507C2 7.69941 2 9.79961 2 14V40C2 44.2004 2 46.3006 2.81745 47.9049C3.5365 49.3161 4.68386 50.4635 6.09507 51.1825C7.69941 52 9.79961 52 14 52ZM13.25 17H30.75C31.9149 17 32.4973 17 32.9567 16.8097C33.5693 16.556 34.056 16.0693 34.3097 15.4567C34.5 14.9973 34.5 14.4149 34.5 13.25C34.5 12.0851 34.5 11.5027 34.3097 11.0433C34.056 10.4307 33.5693 9.94404 32.9567 9.6903C32.4973 9.5 31.9149 9.5 30.75 9.5H13.25C12.0851 9.5 11.5027 9.5 11.0433 9.6903C10.4307 9.94404 9.94404 10.4307 9.6903 11.0433C9.5 11.5027 9.5 12.0851 9.5 13.25C9.5 14.4149 9.5 14.9973 9.6903 15.4567C9.94404 16.0693 10.4307 16.556 11.0433 16.8097C11.5027 17 12.0851 17 13.25 17Z" stroke="#004765" stroke-width="3" stroke-linecap="round"/>
</svg>
