<svg width="195" height="72" viewBox="0 0 195 72" fill="none" xmlns="http://www.w3.org/2000/svg">
<g clip-path="url(#clip0_100_464)">
<path fill-rule="evenodd" clip-rule="evenodd" d="M39.2411 66.8641H40.1361L43.8294 59.5437H45.3814L46.7816 66.8641H47.6756L47.1696 70.0682H45.7356L46.0229 68.1961H40.4393L40.152 70.0682H38.7358L39.2411 66.8641ZM44.3188 61.4322L41.6874 66.8641H45.2296L44.3188 61.4322Z" fill="#1C364A"/>
<path fill-rule="evenodd" clip-rule="evenodd" d="M48.2493 68.213L49.6321 59.5605H52.8376C54.6027 59.5605 55.4854 60.1788 55.4854 61.4158C55.4854 62.4619 55.0189 63.1982 54.0852 63.6252V63.6934C54.434 63.8393 54.715 64.0728 54.9287 64.3931C55.1424 64.7133 55.249 65.065 55.249 65.4474C55.249 66.3582 54.8614 67.0666 54.0852 67.5725C53.4215 67.9998 52.6123 68.213 51.6563 68.213H48.2493ZM50.2905 64.4018L49.8854 66.9314H51.7406C53.0673 66.9314 53.731 66.4483 53.731 65.4812C53.731 64.7613 53.2023 64.4018 52.1457 64.4018H50.2905ZM52.5503 60.8422H50.8637L50.4756 63.2211H52.1626C52.6913 63.2211 53.1297 63.1081 53.4786 62.8833C53.8826 62.6246 54.0852 62.2424 54.0852 61.7364C54.0852 61.1406 53.5741 60.8422 52.5503 60.8422Z" fill="#1C364A"/>
<path fill-rule="evenodd" clip-rule="evenodd" d="M63.1261 65.5486H64.7791C63.643 67.4822 62.1076 68.4488 60.1739 68.4488C59.0721 68.4488 58.1641 68.0841 57.4495 67.3534C56.7359 66.6223 56.3787 65.7062 56.3787 64.6039C56.3787 63.2211 56.9073 61.9923 57.9645 60.9182C59.0213 59.844 60.2354 59.3076 61.6076 59.3076C62.7772 59.3076 63.6934 59.6618 64.3571 60.3697C65.021 61.0781 65.3524 62.0232 65.3524 63.204C65.3524 63.5752 65.3184 63.9793 65.2515 64.4177H57.8972C57.919 65.1717 58.1549 65.7963 58.6055 66.2904C59.0547 66.7851 59.6515 67.0333 60.3933 67.0333C61.4951 67.0333 62.4065 66.5381 63.1261 65.5486ZM61.422 60.7413C60.6914 60.7413 60.0363 60.9574 59.4574 61.3905C58.8777 61.8236 58.4364 62.3882 58.1332 63.0859H63.8682C63.6541 61.5228 62.8388 60.7413 61.422 60.7413Z" fill="#1C364A"/>
<path fill-rule="evenodd" clip-rule="evenodd" d="M70.8008 68.4154C69.6429 68.4154 68.6758 67.9657 67.8997 67.0665L67.1238 71.9741H65.6729L67.6298 59.5436H69.1143L68.9457 60.7072C69.9918 59.8076 71.0537 59.3579 72.1338 59.3579C73.2806 59.3579 74.2138 59.6976 74.9332 60.3778C75.6532 61.059 76.0128 61.9671 76.0128 63.1022C76.0128 64.5423 75.5007 65.7869 74.4782 66.8388C73.4551 67.8897 72.2292 68.4154 70.8008 68.4154ZM68.3381 64.317C68.3381 65.0708 68.574 65.7061 69.0464 66.223C69.5183 66.7404 70.126 66.9992 70.8686 66.9992C71.813 66.9992 72.6478 66.6334 73.3732 65.9027C74.0984 65.1716 74.4608 64.3344 74.4608 63.389C74.4608 62.6133 74.2167 61.9777 73.7274 61.4831C73.238 60.9884 72.6115 60.7412 71.8468 60.7412C70.9578 60.7412 70.1511 61.1152 69.4258 61.8623C68.701 62.6105 68.3381 63.4288 68.3381 64.317Z" fill="#1C364A"/>
<path fill-rule="evenodd" clip-rule="evenodd" d="M77.7672 68.213H76.3669L77.7502 59.5605H79.2173L78.1887 65.9697L83.9239 59.5605H85.3241L83.9408 68.213H82.4563L83.4853 61.7874L77.7672 68.213Z" fill="#1C364A"/>
<path fill-rule="evenodd" clip-rule="evenodd" d="M90.3166 62.9675V64.3344H86.2686V62.9675H90.3166Z" fill="#1C364A"/>
<path fill-rule="evenodd" clip-rule="evenodd" d="M92.7453 68.213H91.2947L92.6774 59.5605H94.1286L93.4702 63.6252L93.5545 63.5243L93.5391 63.6421L97.8734 59.5605H99.5775L95.2087 63.659L98.2447 68.213H96.3554L93.5215 63.7603L93.5044 63.9294L93.4535 63.7942L92.7453 68.213Z" fill="#1C364A"/>
<path fill-rule="evenodd" clip-rule="evenodd" d="M102.006 67.9941L99.8808 59.5437H101.483L103.085 66.1558L106.628 59.5437H108.23L101.415 71.9742H99.8464L102.006 67.9941Z" fill="#1C364A"/>
<path fill-rule="evenodd" clip-rule="evenodd" d="M110.035 60.8929L108.871 68.213H107.403L108.787 59.5605H115.753L114.37 68.213H112.902L114.066 60.8929H110.035Z" fill="#1C364A"/>
<path fill-rule="evenodd" clip-rule="evenodd" d="M123.124 65.5486H124.777C123.642 67.4822 122.106 68.4488 120.172 68.4488C119.07 68.4488 118.162 68.0841 117.448 67.3534C116.734 66.6223 116.377 65.7062 116.377 64.6039C116.377 63.2211 116.906 61.9923 117.963 60.9182C119.02 59.844 120.234 59.3076 121.606 59.3076C122.776 59.3076 123.692 59.6618 124.355 60.3697C125.019 61.0781 125.351 62.0232 125.351 63.204C125.351 63.5752 125.317 63.9793 125.25 64.4177H117.895C117.918 65.1717 118.154 65.7963 118.604 66.2904C119.053 66.7851 119.65 67.0333 120.392 67.0333C121.493 67.0333 122.405 66.5381 123.124 65.5486ZM121.421 60.7413C120.69 60.7413 120.035 60.9574 119.456 61.3905C118.876 61.8236 118.435 62.3882 118.132 63.0859H123.867C123.652 61.5228 122.837 60.7413 121.421 60.7413Z" fill="#1C364A"/>
<path fill-rule="evenodd" clip-rule="evenodd" d="M25.6556 16.9167L20.3796 49.4349H29.0869L33.3578 23.9204H51.2809L46.879 49.4349H55.3969L60.9959 16.9167H25.6556Z" fill="#E51B43"/>
<path fill-rule="evenodd" clip-rule="evenodd" d="M43.1299 16.9167H55.1125L58.0869 0H8.63416L1.52197 42.9293H13.7103L19.412 9.06282H44.4929L43.1299 16.9167Z" fill="#1C364A"/>
<path fill-rule="evenodd" clip-rule="evenodd" d="M51.2809 23.9204H41.9149L38.6167 42.9293H48.0017L51.2809 23.9204Z" fill="#1C364A"/>
<path fill-rule="evenodd" clip-rule="evenodd" d="M47.5074 45.7913L47.7545 44.3601H29.9361L29.6963 45.7913H47.5074Z" fill="#1C364A"/>
<path fill-rule="evenodd" clip-rule="evenodd" d="M21.2028 44.3601H1.31595L1.07324 45.7913H20.9707L21.2028 44.3601Z" fill="#1C364A"/>
<path fill-rule="evenodd" clip-rule="evenodd" d="M25.3053 72.0001L28.3277 53.1985H19.8177L16.7891 72.0001H25.3053Z" fill="#E51B43"/>
<path fill-rule="evenodd" clip-rule="evenodd" d="M194.594 51.4895H0.216578L0 53.1984H194.389L194.594 51.4895Z" fill="#E51B43"/>
<path fill-rule="evenodd" clip-rule="evenodd" d="M88.1088 17.0757L83.1933 42.9569H80.0057L84.4604 19.8021H73.1325L68.7166 42.9569H65.5295L70.4831 17.0757H88.1088Z" fill="#1C364A"/>
<path fill-rule="evenodd" clip-rule="evenodd" d="M111.187 17.0757L106.272 42.9569H103.085L107.501 19.8021H99.1681L97.6705 27.751C96.3648 34.7013 94.6371 38.9247 92.1792 41.1521C91.181 42.2272 89.4145 43.2259 87.1106 43.3028L86.7651 40.6148C88.1091 40.4612 89.2996 39.8081 90.1442 38.9247C92.1792 37.0052 93.562 33.3573 94.56 27.981L96.5954 17.0757H111.187Z" fill="#1C364A"/>
<path fill-rule="evenodd" clip-rule="evenodd" d="M117.217 34.7779L113.108 42.9569H109.729L123.13 17.0757H126.893L130.464 42.9569H127.2L126.164 34.7779H117.217ZM125.895 32.2439L124.897 24.7557C124.743 23.4122 124.551 21.5298 124.436 19.9939H124.359C123.668 21.5298 123.015 23.1432 122.247 24.7174L118.368 32.2439H125.895Z" fill="#1C364A"/>
<path fill-rule="evenodd" clip-rule="evenodd" d="M141.909 17.0757L139.796 27.981H151.7L153.774 17.0757H157L152.046 42.9569H148.859L151.163 30.7846H139.259L136.955 42.9569H133.768L138.722 17.0757H141.909Z" fill="#1C364A"/>
<path fill-rule="evenodd" clip-rule="evenodd" d="M172.744 30.7846H163.336L161.57 40.2306H172.169L171.631 42.9569H157.845L162.76 17.0757H175.97L175.432 19.8021H165.448L163.874 28.0964H173.282L172.744 30.7846Z" fill="#1C364A"/>
<path fill-rule="evenodd" clip-rule="evenodd" d="M180.77 17.4598C182.23 17.1138 184.265 16.8838 186.377 16.8838C188.873 16.8838 191.253 17.4981 192.712 18.8804C193.941 20.032 194.594 21.5297 194.594 23.565C194.594 26.4832 193.173 28.9025 191.483 30.3231C189.487 32.013 186.568 32.781 183.65 32.781C182.69 32.781 181.807 32.7044 181.001 32.5892L179.042 42.9567H175.894L180.77 17.4598ZM181.5 29.9011C182.422 30.093 183.151 30.1699 184.073 30.1699C188.45 30.1699 191.368 27.4432 191.368 23.7958C191.368 20.7234 189.18 19.4948 186.222 19.4948C184.956 19.4948 183.996 19.61 183.42 19.7637L181.5 29.9011Z" fill="#1C364A"/>
</g>
<defs>
<clipPath id="clip0_100_464">
<rect width="194.594" height="72" fill="white"/>
</clipPath>
</defs>
</svg>
