<svg width="32" height="32" viewBox="0 0 32 32" fill="none" xmlns="http://www.w3.org/2000/svg">
<rect x="1" y="1" width="30" height="30" rx="15" fill="white"/>
<path d="M13.6765 13.0889C13.9427 12.8227 14.0758 12.6896 14.1628 12.5558C14.491 12.051 14.491 11.4003 14.1628 10.8956C14.0758 10.7618 13.9427 10.6287 13.6765 10.3625L13.5281 10.2141C13.1235 9.80942 12.9211 9.6071 12.7038 9.49719C12.2717 9.27861 11.7613 9.27861 11.3292 9.49719C11.1119 9.6071 10.9095 9.80942 10.5049 10.2141L10.3849 10.3341C9.9816 10.7374 9.77996 10.939 9.62596 11.2131C9.45509 11.5173 9.33222 11.9898 9.33326 12.3387C9.33419 12.6531 9.39519 12.868 9.51717 13.2978C10.1727 15.6075 11.4097 17.787 13.2279 19.6052C15.0462 21.4235 17.2257 22.6604 19.5354 23.316C19.9652 23.438 20.18 23.499 20.4945 23.4999C20.8434 23.501 21.3158 23.3781 21.62 23.2072C21.8942 23.0532 22.0958 22.8516 22.4991 22.4483L22.6191 22.3283C23.0237 21.9236 23.2261 21.7213 23.336 21.504C23.5546 21.0718 23.5546 20.5615 23.336 20.1293C23.2261 19.912 23.0237 19.7097 22.6191 19.3051L22.4707 19.1567C22.2045 18.8905 22.0714 18.7574 21.9376 18.6704C21.4328 18.3422 20.7821 18.3422 20.2774 18.6704C20.1436 18.7574 20.0105 18.8905 19.7443 19.1567C19.6572 19.2437 19.6137 19.2872 19.5628 19.3237C19.382 19.4531 19.1199 19.4978 18.9064 19.4356C18.8464 19.4181 18.7989 19.3953 18.704 19.3497C17.6002 18.8198 16.5657 18.0973 15.6508 17.1824C14.7359 16.2675 14.0134 15.233 13.4835 14.1292C13.4379 14.0343 13.4151 13.9868 13.3976 13.9267C13.3354 13.7133 13.3801 13.4511 13.5095 13.2704C13.5459 13.2195 13.5895 13.176 13.6765 13.0889ZM13.6765 13.0889V13.0889Z" stroke="#004765" stroke-width="2" stroke-linecap="round" stroke-linejoin="round"/>
<rect x="1" y="1" width="30" height="30" rx="15" stroke="#004765" stroke-width="2"/>
</svg>
