<svg width="32" height="32" viewBox="0 0 32 32" fill="none" xmlns="http://www.w3.org/2000/svg">
<g clip-path="url(#clip0_100_375)">
<path d="M32 16C32 7.16344 24.8366 0 16 0C7.16344 0 0 7.16344 0 16C0 24.8366 7.16344 32 16 32C24.8366 32 32 24.8366 32 16Z" fill="#419FD9"/>
<path d="M32 16C32 7.16344 24.8366 0 16 0C7.16344 0 0 7.16344 0 16C0 24.8366 7.16344 32 16 32C24.8366 32 32 24.8366 32 16Z" fill="url(#paint0_linear_100_375)"/>
<path d="M7.1916 15.6472C11.8445 13.5774 14.9471 12.2129 16.4995 11.5536C20.9319 9.67122 21.853 9.34422 22.4533 9.33336C22.5853 9.33109 22.8805 9.36449 23.0718 9.52289C23.2333 9.65669 23.2777 9.83742 23.2989 9.96422C23.3202 10.0911 23.3467 10.38 23.3256 10.6058C23.0854 13.1826 22.0461 19.4358 21.5173 22.3219C21.2936 23.5431 20.8531 23.9526 20.4266 23.9926C19.4997 24.0797 18.7959 23.3672 17.8982 22.7664C16.4934 21.8262 15.6999 21.2409 14.3363 20.3235C12.7605 19.2632 13.782 18.6805 14.6801 17.7281C14.9151 17.4789 18.9989 13.6862 19.0779 13.3422C19.0878 13.2992 19.097 13.1388 19.0037 13.0541C18.9103 12.9694 18.7726 12.9984 18.6732 13.0214C18.5323 13.054 16.2882 14.5685 11.9409 17.5648C11.3039 18.0114 10.7269 18.2289 10.21 18.2175C9.64013 18.205 8.54393 17.8886 7.729 17.6181C6.72947 17.2863 5.93503 17.111 6.0042 16.5476C6.04023 16.2541 6.43602 15.954 7.1916 15.6472Z" fill="white"/>
</g>
<defs>
<linearGradient id="paint0_linear_100_375" x1="16" y1="0" x2="16" y2="31.7627" gradientUnits="userSpaceOnUse">
<stop stop-color="#2AABEE"/>
<stop offset="1" stop-color="#229ED9"/>
</linearGradient>
<clipPath id="clip0_100_375">
<rect width="32" height="32" fill="white"/>
</clipPath>
</defs>
</svg>
