<svg width="32" height="32" viewBox="0 0 32 32" fill="none" xmlns="http://www.w3.org/2000/svg">
<g clip-path="url(#clip0_100_378)">
<path d="M32 16C32 7.16344 24.8366 0 16 0C7.16344 0 0 7.16344 0 16C0 24.8366 7.16344 32 16 32C24.8366 32 32 24.8366 32 16Z" fill="#0DC143"/>
<path d="M23.1672 8.80759C21.4518 7.04179 19.0807 6.08325 16.659 6.08325C11.5131 6.08325 7.37615 10.2707 7.42662 15.3661C7.42662 16.9805 7.88068 18.5445 8.63742 19.9571L7.32568 24.7499L12.2194 23.4887C13.5816 24.2454 15.0951 24.5986 16.6086 24.5986C21.7041 24.5986 25.841 20.4112 25.841 15.3157C25.841 12.8436 24.8825 10.5229 23.1672 8.80759ZM16.659 23.0346C15.2969 23.0346 13.9347 22.6814 12.7744 21.9751L12.4716 21.8238L9.54555 22.5805L10.3023 19.7049L10.1005 19.4022C7.88068 15.8202 8.94008 11.0779 12.5726 8.85805C16.205 6.63821 20.8969 7.69765 23.1167 11.3301C25.3365 14.9625 24.2771 19.6545 20.6446 21.8743C19.4843 22.631 18.0716 23.0346 16.659 23.0346ZM21.0987 17.4346L20.5437 17.1823C20.5437 17.1823 19.7365 16.8292 19.232 16.5769C19.1816 16.5769 19.1311 16.5265 19.0807 16.5265C18.9293 16.5265 18.8284 16.5769 18.7275 16.6274C18.7275 16.6274 18.6771 16.6779 17.9708 17.4851C17.9203 17.586 17.8194 17.6364 17.7185 17.6364H17.668C17.6176 17.6364 17.5167 17.586 17.4662 17.5355L17.214 17.4346C16.659 17.1823 16.1546 16.8797 15.751 16.4761C15.65 16.3751 15.4987 16.2743 15.3978 16.1733C15.0446 15.8202 14.6915 15.4166 14.4392 14.9625L14.3888 14.8617C14.3383 14.8112 14.3383 14.7607 14.2879 14.6599C14.2879 14.5589 14.2879 14.4581 14.3383 14.4076C14.3383 14.4076 14.5401 14.1553 14.6915 14.004C14.7924 13.9031 14.8428 13.7517 14.9438 13.6509C15.0446 13.4995 15.0951 13.2977 15.0446 13.1463C14.9942 12.8941 14.3888 11.5319 14.2374 11.2292C14.1365 11.0779 14.0356 11.0274 13.8843 10.9769H13.7329C13.632 10.9769 13.4807 10.9769 13.3293 10.9769C13.2284 10.9769 13.1275 11.0274 13.0266 11.0274L12.9762 11.0779C12.8752 11.1283 12.7744 11.2292 12.6734 11.2797C12.5726 11.3805 12.5221 11.4815 12.4212 11.5823C12.068 12.0364 11.8662 12.5914 11.8662 13.1463C11.8662 13.5499 11.9672 13.9535 12.1185 14.3067L12.169 14.4581C12.623 15.4166 13.2284 16.2743 14.0356 17.031L14.2374 17.2328C14.3888 17.3842 14.5401 17.4851 14.641 17.6364C15.7005 18.5445 16.9113 19.2004 18.2734 19.5535C18.4248 19.604 18.6266 19.604 18.778 19.6545C18.9293 19.6545 19.1311 19.6545 19.2825 19.6545C19.5347 19.6545 19.8374 19.5535 20.0392 19.4527C20.1906 19.3517 20.2915 19.3517 20.3923 19.2509L20.4933 19.1499C20.5942 19.049 20.6951 18.9986 20.7959 18.8977C20.8969 18.7968 20.9978 18.6959 21.0482 18.595C21.1492 18.3932 21.1996 18.1409 21.25 17.8887C21.25 17.7878 21.25 17.6364 21.25 17.5355C21.25 17.5355 21.1996 17.4851 21.0987 17.4346Z" fill="white"/>
</g>
<defs>
<clipPath id="clip0_100_378">
<rect width="32" height="32" fill="white"/>
</clipPath>
</defs>
</svg>
