<svg width="27" height="26" viewBox="0 0 27 26" fill="none" xmlns="http://www.w3.org/2000/svg">
<path d="M8.04167 7.66667H5.64167C4.14819 7.66667 3.40146 7.66667 2.83103 7.95732C2.32926 8.21298 1.92131 8.62093 1.66565 9.12269C1.375 9.69312 1.375 10.4399 1.375 11.9333V20.7333C1.375 22.2268 1.375 22.9735 1.66565 23.544C1.92131 24.0457 2.32926 24.4537 2.83103 24.7094C3.40146 25 4.14819 25 5.64167 25H8.04167M8.04167 7.66667H18.7083M8.04167 7.66667V6.33333C8.04167 3.38781 10.4295 1 13.375 1C16.3205 1 18.7083 3.38781 18.7083 6.33333V7.66667M8.04167 7.66667V25M18.7083 7.66667H21.1083C22.6018 7.66667 23.3485 7.66667 23.919 7.95732C24.4207 8.21298 24.8287 8.62093 25.0844 9.12269C25.375 9.69312 25.375 10.4399 25.375 11.9333V20.7333C25.375 22.2268 25.375 22.9735 25.0844 23.544C24.8287 24.0457 24.4207 24.4537 23.919 24.7094C23.3485 25 22.6018 25 21.1083 25H18.7083M18.7083 7.66667V25M8.04167 25H18.7083" stroke="#004765" stroke-width="2" stroke-linecap="round"/>
</svg>
