<svg width="33" height="32" viewBox="0 0 33 32" fill="none" xmlns="http://www.w3.org/2000/svg">
<path d="M21.958 16H19.2913M21.958 20H19.2913M21.958 24H19.2913M13.958 16H11.2913M13.958 20H11.2913M13.958 24H11.2913M12.358 29.3333H20.8913C23.1316 29.3333 24.2517 29.3333 25.1073 28.8973C25.86 28.5138 26.4719 27.9019 26.8554 27.1493C27.2913 26.2936 27.2913 25.1735 27.2913 22.9333V9.06663C27.2913 6.82642 27.2913 5.70631 26.8554 4.85066C26.4719 4.09802 25.86 3.48609 25.1073 3.1026C24.2517 2.66663 23.1316 2.66663 20.8913 2.66663H12.358C10.1178 2.66663 8.99769 2.66663 8.14205 3.1026C7.3894 3.48609 6.77748 4.09802 6.39398 4.85066C5.95801 5.70631 5.95801 6.82642 5.95801 9.06663V22.9333C5.95801 25.1735 5.95801 26.2936 6.39398 27.1493C6.77748 27.9019 7.3894 28.5138 8.14205 28.8973C8.99769 29.3333 10.1178 29.3333 12.358 29.3333ZM11.958 10.6666H21.2913C21.9126 10.6666 22.2232 10.6666 22.4683 10.5651C22.795 10.4298 23.0545 10.1702 23.1898 9.84354C23.2913 9.59851 23.2913 9.28788 23.2913 8.66663C23.2913 8.04537 23.2913 7.73474 23.1898 7.48971C23.0545 7.16301 22.795 6.90345 22.4683 6.76812C22.2232 6.66663 21.9126 6.66663 21.2913 6.66663H11.958C11.3368 6.66663 11.0261 6.66663 10.7811 6.76812C10.4544 6.90345 10.1948 7.16301 10.0595 7.48971C9.95801 7.73474 9.95801 8.04537 9.95801 8.66663C9.95801 9.28788 9.95801 9.59851 10.0595 9.84354C10.1948 10.1702 10.4544 10.4298 10.7811 10.5651C11.0261 10.6666 11.3368 10.6666 11.958 10.6666Z" stroke="#004765" stroke-width="2" stroke-linecap="round"/>
</svg>
