<svg width="24" height="26" viewBox="0 0 24 26" fill="none" xmlns="http://www.w3.org/2000/svg">
<path d="M7.87467 24.2214V14.8881C7.87467 14.1517 8.47163 13.5547 9.20801 13.5547H14.5413C15.2777 13.5547 15.8747 14.1517 15.8747 14.8881V24.2214M1.20801 21.5547V11.476C1.20801 9.8764 1.92602 8.36123 3.16407 7.34827L10.186 1.60303C11.1683 0.799318 12.581 0.799317 13.5633 1.60302L20.5853 7.34827C21.8233 8.36123 22.5413 9.8764 22.5413 11.476V21.5548C22.5413 23.0275 21.3474 24.2214 19.8747 24.2214H17.208H6.54134H3.87467C2.40192 24.2214 1.20801 23.0275 1.20801 21.5547Z" stroke="#004765" stroke-width="2" stroke-linecap="round"/>
</svg>
