<svg width="24" height="30" viewBox="0 0 24 30" fill="none" xmlns="http://www.w3.org/2000/svg">
<path d="M6.79134 18.3801C3.60307 19.3023 1.45801 21.0259 1.45801 23C1.45801 25.9455 6.23364 28.3333 12.1247 28.3333C18.0157 28.3333 22.7913 25.9455 22.7913 23C22.7913 21.0259 20.6463 19.3023 17.458 18.3801M20.1247 10.2C20.1247 14.9128 14.1247 23 12.1247 23C10.1247 23 4.12467 14.9128 4.12467 10.2C4.12467 5.48713 7.7064 1.66663 12.1247 1.66663C16.543 1.66663 20.1247 5.48713 20.1247 10.2ZM14.7913 9.66663C14.7913 11.1394 13.5974 12.3333 12.1247 12.3333C10.6519 12.3333 9.45801 11.1394 9.45801 9.66663C9.45801 8.19387 10.6519 6.99996 12.1247 6.99996C13.5974 6.99996 14.7913 8.19387 14.7913 9.66663Z" stroke="#004765" stroke-width="2"/>
</svg>
