<svg width="32" height="32" viewBox="0 0 32 32" fill="none" xmlns="http://www.w3.org/2000/svg">
<g id="Icons">
<path id="Icon" d="M15.4997 14.1663H16.4997M15.4997 15.1663H16.4997M22.6667 14.3997C22.6667 17.9343 17.6667 23.9997 16 23.9997C14.3333 23.9997 9.33334 17.9343 9.33334 14.3997C9.33334 10.8651 12.3181 7.99967 16 7.99967C19.6819 7.99967 22.6667 10.8651 22.6667 14.3997ZM17.3333 14.6663C17.3333 15.4027 16.7364 15.9997 16 15.9997C15.2636 15.9997 14.6667 15.4027 14.6667 14.6663C14.6667 13.93 15.2636 13.333 16 13.333C16.7364 13.333 17.3333 13.93 17.3333 14.6663ZM30.6667 15.9997C30.6667 24.0998 24.1002 30.6663 16 30.6663C7.89983 30.6663 1.33334 24.0998 1.33334 15.9997C1.33334 7.8995 7.89983 1.33301 16 1.33301C24.1002 1.33301 30.6667 7.8995 30.6667 15.9997Z" stroke="white" stroke-width="2" stroke-linecap="round"/>
</g>
</svg>
