<svg xmlns="http://www.w3.org/2000/svg" width="166" height="166" viewBox="0 0 166 166" fill="none">
  <path d="M117.28 86.1645C115.438 86.9389 113.618 87.77 111.752 88.4784C102.614 91.9473 93.4673 95.3933 84.312 98.8163C82.4363 99.5156 80.4703 99.9693 78.5768 100.626C77.784 100.809 77.075 101.252 76.5622 101.883C76.0495 102.515 75.7622 103.3 75.746 104.114C75.741 104.684 75.8739 105.247 76.1334 105.754C76.3929 106.262 76.7713 106.7 77.2364 107.03C77.7015 107.359 78.2395 107.572 78.8044 107.649C79.3694 107.726 79.9447 107.666 80.4811 107.472C82.9649 106.883 85.4138 106.125 87.8454 105.339C101.104 101.057 114.377 96.8184 127.586 92.3862C130.644 91.2599 133.592 89.8562 136.394 88.1927C139.389 86.5256 139.831 84.6382 138.393 81.5044C138.241 81.2455 138.136 80.9618 138.082 80.6665C137.996 79.3489 137.472 78.0977 136.595 77.1114C135.717 76.1251 134.535 75.46 133.236 75.2216C127.36 73.3608 121.404 71.7324 115.594 69.6844C108.838 67.3027 102.197 64.5934 95.523 61.9838C93.4229 61.1627 91.3838 60.1871 89.3041 59.3128C88.8963 59.0866 88.4467 58.946 87.9826 58.8995C87.5186 58.8531 87.05 58.9019 86.6055 59.0428C86.1609 59.1838 85.7498 59.414 85.3973 59.7193C85.0448 60.0246 84.7584 60.3987 84.5554 60.8186C84.3787 61.2504 84.2941 61.7144 84.3072 62.1809C84.3203 62.6473 84.4307 63.1058 84.6314 63.5271C84.8322 63.9483 85.1187 64.323 85.4727 64.627C85.8267 64.9309 86.2404 65.1576 86.6871 65.2923C92.698 67.8126 98.7091 70.3391 104.784 72.6987C109.781 74.6399 114.87 76.3444 119.916 78.1607C120.256 78.2845 120.541 78.5235 120.723 78.8362C120.231 78.8596 119.739 78.9064 119.248 78.9036C103.861 78.8082 88.4814 78.5455 73.1523 77.0139C60.1693 75.8653 47.2933 73.7248 34.637 70.6109C33.2781 70.26 31.9264 69.8618 30.5488 69.6149C30.0546 69.4479 29.5305 69.3882 29.0114 69.4398C28.4923 69.4913 27.9902 69.6529 27.5385 69.9138C27.0868 70.1747 26.6959 70.5289 26.3919 70.9528C26.0879 71.3767 25.8777 71.8605 25.7754 72.372C25.6731 72.8835 25.6811 73.4109 25.7987 73.9191C25.9163 74.4273 26.1409 74.9046 26.4575 75.3191C26.7741 75.7337 27.1754 76.076 27.6347 76.3232C28.0941 76.5704 28.6008 76.7169 29.1212 76.7528C36.6832 78.2762 44.2264 79.9371 51.8384 81.1615C72.075 84.1159 92.5005 85.5866 112.952 85.5618C114.382 85.5811 115.811 85.6578 117.241 85.7076L117.28 86.1645Z" fill="#004765"/>
</svg>