<svg width="33" height="32" viewBox="0 0 33 32" fill="none" xmlns="http://www.w3.org/2000/svg">
<g id="Icons">
<path id="Icon" d="M15.9997 14.1667H16.9997M15.9997 15.1667H16.9997M23.1666 14.4002C23.1666 17.9348 18.1666 24.0002 16.5 24.0002C14.8333 24.0002 9.83331 17.9348 9.83331 14.4002C9.83331 10.8655 12.8181 8.00016 16.5 8.00016C20.1819 8.00016 23.1666 10.8655 23.1666 14.4002ZM17.8333 14.6668C17.8333 15.4032 17.2364 16.0002 16.5 16.0002C15.7636 16.0002 15.1666 15.4032 15.1666 14.6668C15.1666 13.9304 15.7636 13.3335 16.5 13.3335C17.2364 13.3335 17.8333 13.9304 17.8333 14.6668ZM31.1666 16.0002C31.1666 24.1003 24.6002 30.6668 16.5 30.6668C8.3998 30.6668 1.83331 24.1003 1.83331 16.0002C1.83331 7.89999 8.3998 1.3335 16.5 1.3335C24.6002 1.3335 31.1666 7.89999 31.1666 16.0002Z" stroke="#004765" stroke-width="2" stroke-linecap="round"/>
</g>
</svg>
